<?xml version="1.0" encoding="UTF-8"?><svg xmlns="http://www.w3.org/2000/svg" xmlns:xlink="http://www.w3.org/1999/xlink" fill-opacity="1" color-rendering="auto" color-interpolation="auto" text-rendering="auto" stroke="black" stroke-linecap="square" width="438" stroke-miterlimit="10" shape-rendering="auto" stroke-opacity="1" fill="black" stroke-dasharray="none" font-weight="normal" stroke-width="1" height="363" font-family="'Dialog'" font-style="normal" stroke-linejoin="miter" font-size="12px" stroke-dashoffset="0" image-rendering="auto">
  <!--Generated by ySVG 2.5-->
  <defs id="genericDefs"/>
  <g>
    <defs id="defs1">
      <clipPath clipPathUnits="userSpaceOnUse" id="clipPath1">
        <path d="M0 0 L438 0 L438 363 L0 363 L0 0 Z"/>
      </clipPath>
      <clipPath clipPathUnits="userSpaceOnUse" id="clipPath2">
        <path d="M116 -183 L554 -183 L554 180 L116 180 L116 -183 Z"/>
      </clipPath>
    </defs>
    <g fill="white" text-rendering="geometricPrecision" shape-rendering="geometricPrecision" transform="translate(-116,183)" stroke="white">
      <rect x="116" width="438" height="363" y="-183" clip-path="url(#clipPath2)" stroke="none"/>
    </g>
    <g fill="rgb(153,204,255)" text-rendering="geometricPrecision" shape-rendering="geometricPrecision" transform="matrix(1,0,0,1,-116,183)" stroke="rgb(153,204,255)">
      <rect x="131.8231" y="-76.9775" clip-path="url(#clipPath2)" width="97.9623" rx="4" ry="4" height="65.0321" stroke="none"/>
    </g>
    <g text-rendering="geometricPrecision" stroke-miterlimit="1.45" shape-rendering="geometricPrecision" transform="matrix(1,0,0,1,-116,183)" stroke-linecap="butt">
      <rect x="131.8231" y="-76.9775" clip-path="url(#clipPath2)" fill="none" width="97.9623" rx="4" ry="4" height="65.0321"/>
      <text x="170.9967" xml:space="preserve" y="-60.907" clip-path="url(#clipPath2)" font-family="sans-serif" stroke="none">JDK</text>
    </g>
    <g fill="rgb(255,153,204)" text-rendering="geometricPrecision" shape-rendering="geometricPrecision" transform="matrix(1,0,0,1,-116,183)" stroke="rgb(255,153,204)">
      <rect x="143.734" width="74.1405" height="30" y="-47.5506" clip-path="url(#clipPath2)" stroke="none"/>
    </g>
    <g text-rendering="geometricPrecision" stroke-miterlimit="1.45" shape-rendering="geometricPrecision" transform="matrix(1,0,0,1,-116,183)" stroke-linecap="butt">
      <rect fill="none" x="143.734" width="74.1405" height="30" y="-47.5506" clip-path="url(#clipPath2)"/>
      <text x="169.4693" xml:space="preserve" y="-27.8367" clip-path="url(#clipPath2)" font-family="sans-serif" stroke="none">JRE</text>
    </g>
    <g fill="rgb(153,204,255)" text-rendering="geometricPrecision" shape-rendering="geometricPrecision" transform="matrix(1,0,0,1,-116,183)" stroke="rgb(153,204,255)">
      <rect x="286.215" y="-76.9775" clip-path="url(#clipPath2)" width="97.9623" rx="4" ry="4" height="65.0321" stroke="none"/>
    </g>
    <g text-rendering="geometricPrecision" stroke-miterlimit="1.45" shape-rendering="geometricPrecision" transform="matrix(1,0,0,1,-116,183)" stroke-linecap="butt">
      <rect x="286.215" y="-76.9775" clip-path="url(#clipPath2)" fill="none" width="97.9623" rx="4" ry="4" height="65.0321"/>
    </g>
    <g fill="rgb(255,153,204)" text-rendering="geometricPrecision" shape-rendering="geometricPrecision" transform="matrix(1,0,0,1,-116,183)" stroke="rgb(255,153,204)">
      <rect x="298.1259" width="74.1405" height="30" y="-47.5506" clip-path="url(#clipPath2)" stroke="none"/>
    </g>
    <g text-rendering="geometricPrecision" stroke-miterlimit="1.45" shape-rendering="geometricPrecision" transform="matrix(1,0,0,1,-116,183)" stroke-linecap="butt">
      <rect fill="none" x="298.1259" width="74.1405" height="30" y="-47.5506" clip-path="url(#clipPath2)"/>
      <text x="323.8612" xml:space="preserve" y="-27.8367" clip-path="url(#clipPath2)" font-family="sans-serif" stroke="none">JRE</text>
    </g>
    <g fill="rgb(153,204,255)" text-rendering="geometricPrecision" shape-rendering="geometricPrecision" transform="matrix(1,0,0,1,-116,183)" stroke="rgb(153,204,255)">
      <rect x="440.6069" y="-76.9775" clip-path="url(#clipPath2)" width="97.9623" rx="4" ry="4" height="65.0321" stroke="none"/>
    </g>
    <g text-rendering="geometricPrecision" stroke-miterlimit="1.45" shape-rendering="geometricPrecision" transform="matrix(1,0,0,1,-116,183)" stroke-linecap="butt">
      <rect x="440.6069" y="-76.9775" clip-path="url(#clipPath2)" fill="none" width="97.9623" rx="4" ry="4" height="65.0321"/>
      <text x="477.588" xml:space="preserve" y="-133.4455" clip-path="url(#clipPath2)" font-family="sans-serif" stroke="none">JME</text>
    </g>
    <g fill="rgb(255,153,204)" text-rendering="geometricPrecision" shape-rendering="geometricPrecision" transform="matrix(1,0,0,1,-116,183)" stroke="rgb(255,153,204)">
      <rect x="452.5178" width="74.1405" height="30" y="-47.5506" clip-path="url(#clipPath2)" stroke="none"/>
    </g>
    <g text-rendering="geometricPrecision" stroke-miterlimit="1.45" shape-rendering="geometricPrecision" transform="matrix(1,0,0,1,-116,183)" stroke-linecap="butt">
      <rect fill="none" x="452.5178" width="74.1405" height="30" y="-47.5506" clip-path="url(#clipPath2)"/>
      <text x="478.2531" xml:space="preserve" y="-27.8367" clip-path="url(#clipPath2)" font-family="sans-serif" stroke="none">JRE</text>
      <text x="478.2531" xml:space="preserve" y="-62.0948" clip-path="url(#clipPath2)" font-family="sans-serif" stroke="none">JDK</text>
      <text x="323.8612" xml:space="preserve" y="-62.2403" clip-path="url(#clipPath2)" font-family="sans-serif" stroke="none">JDK</text>
      <text x="324.1922" xml:space="preserve" y="-133.4455" clip-path="url(#clipPath2)" font-family="sans-serif" stroke="none">JEE</text>
      <text x="169.8003" xml:space="preserve" y="-133.4455" clip-path="url(#clipPath2)" font-family="sans-serif" stroke="none">JSE</text>
      <rect stroke-linecap="square" x="409.7234" y="-167.5673" clip-path="url(#clipPath2)" width="5.3374" height="201.5172" stroke="none" stroke-miterlimit="10"/>
      <rect stroke-linecap="square" x="255.3315" y="-167.7127" clip-path="url(#clipPath2)" width="5.3374" height="201.5172" stroke="none" stroke-miterlimit="10"/>
    </g>
  </g>
</svg>
